# xmcd
#
# Track frame offsets:
#  150
#  17035
#  29936
#  49553
#  65258
#  79790
#  92522
#  107669
#  118945
#  133977
#  159139
#  173675
#  184637
#  202213
#  219731
#  230969
#  242299
#  261364
#  271420
#  279751
#  293318
#
# Disc length: 4223 seconds
#
# Revision: 0
# Processed by: cddbd v1.5.1PL2 Copyright (c) Steve Scherf et al.
# Submitted via: Collectorz.com_Music_Collector 6.9
#
DISCID=2c107d15
DTITLE=Texas Renegade - That's Life!
DYEAR=2005
DGENRE=Country general
TTITLE0=Shelter From The Storm
TTITLE1=Big, Big Love
TTITLE2=Pancho And Lefty
TTITLE3=When My Blue Moon Turns To Gold Again
TTITLE4=Cajun Waltz
TTITLE5=Fox On The Run
TTITLE6=Somewhere Down The Road
TTITLE7=One Sweet Letter
TTITLE8=Highway Junkie
TTITLE9=The Dance
TTITLE10=I'm A Lonesome Fugitive
TTITLE11=Fly Away
TTITLE12=I-35
TTITLE13=Ramblin' Fever
TTITLE14=Ace In The Hole
TTITLE15=Ship Me Back To Texas
TTITLE16=Blessed Or Damned
TTITLE17=Stop The World
TTITLE18=Don't You Go Lovin' Nobody Else
TTITLE19=Texas Boogie
TTITLE20=Working Man Blues
EXTD=
EXTT0=
EXTT1=
EXTT2=
EXTT3=
EXTT4=
EXTT5=
EXTT6=
EXTT7=
EXTT8=
EXTT9=
EXTT10=
EXTT11=
EXTT12=
EXTT13=
EXTT14=
EXTT15=
EXTT16=
EXTT17=
EXTT18=
EXTT19=
EXTT20=
PLAYORDER=
